<svg xmlns="http://www.w3.org/2000/svg" viewBox="0 0 64 64" aria-labelledby="title"
aria-describedby="desc" role="img" xmlns:xlink="http://www.w3.org/1999/xlink">
  <title>Cloudy Heavy Rain</title>
  <desc>A line styled icon from Orion Icon Library.</desc>
  <path data-name="layer1"
  d="M46.8 38A10.1 10.1 0 0 0 57 28.1a10.1 10.1 0 0 0-10.2-9.9h-1A13.6 13.6 0 0 0 33.1 10a13.5 13.5 0 0 0-13.5 11.5h-.1a8.2 8.2 0 1 0 0 16.5z"
  fill="none" stroke="#4b8aff" stroke-miterlimit="10" stroke-width="2" stroke-linejoin="round"
  stroke-linecap="round"></path>
  <path data-name="layer2" fill="none" stroke="#4b8aff" stroke-miterlimit="10"
  stroke-width="2" d="M45 46v16m-8-16v10m-8-10v16m-8-16v10" stroke-linejoin="round"
  stroke-linecap="round"></path>
  <path data-name="layer1" d="M16.7 22A10 10 0 1 1 27 11.4" fill="none"
  stroke="#4b8aff" stroke-miterlimit="10" stroke-width="2" stroke-linejoin="round"
  stroke-linecap="round"></path>
</svg>