<svg xmlns="http://www.w3.org/2000/svg" viewBox="0 0 64 64" aria-labelledby="title"
aria-describedby="desc" role="img" xmlns:xlink="http://www.w3.org/1999/xlink">
  <title>Snow</title>
  <desc>A line styled icon from Orion Icon Library.</desc>
  <path data-name="layer2"
  d="M47.9 13.5h-.5a15.8 15.8 0 0 0-30.1 4.2 10.1 10.1 0 0 0-3-.5 10.4 10.4 0 0 0 0 20.8h33.6a12.3 12.3 0 0 0 0-24.5z"
  fill="none" stroke="#4b8aff" stroke-miterlimit="10" stroke-width="2" stroke-linejoin="round"
  stroke-linecap="round"></path>
  <path data-name="layer1" fill="none" stroke="#4b8aff" stroke-miterlimit="10"
  stroke-width="2" d="M18 46v4m2-2h-4m18 0h-4m2 2v-4m-5 12h-4m2 2v-4m15 0v4m2-2h-4m8-12v4m2-2h-4"
  stroke-linejoin="round" stroke-linecap="round"></path>
</svg>